<?xml version="1.0" encoding="utf-8"?>
<!-- Generator: Adobe Illustrator 27.4.1, SVG Export Plug-In . SVG Version: 6.00 Build 0)  -->
<svg version="1.1" width="11rem" id="Livello_1" xmlns="http://www.w3.org/2000/svg" xmlns:xlink="http://www.w3.org/1999/xlink"
	 viewBox="0 0 453.3 128.2" style="enable-background:new 0 0 453.3 128.2;" xml:space="preserve">
<style type="text/css">
	.st0{fill:#FFFFFF;}
</style>
<g>
	<path class="st0" d="M124.83,64.1c0,33.49-27.24,60.73-60.73,60.73S3.37,97.58,3.37,64.1S30.61,3.37,64.1,3.37
		c8.84,0,17.22,1.94,24.8,5.35c0.6-0.98,1.29-1.89,2.07-2.74C82.78,2.18,73.7,0,64.1,0C28.75,0,0,28.75,0,64.1s28.75,64.1,64.1,64.1
		s64.1-28.76,64.1-64.1c0-9.95-2.34-19.34-6.41-27.75h-3.74C122.35,44.68,124.83,54.1,124.83,64.1z"/>
	<path class="st0" d="M131.79,0h-27.44c-5.31,0-10.06,2.33-13.38,5.98c-0.77,0.85-1.46,1.76-2.07,2.74
		c-1.7,2.76-2.73,5.98-2.73,9.45c0,10.02,8.15,18.17,18.17,18.17h13.71h3.74h10c10.02,0,18.17-8.15,18.17-18.17S141.81,0,131.79,0z
		 M131.79,32.98h-27.44c-8.16,0-14.8-6.64-14.8-14.8s6.64-14.8,14.8-14.8h27.44c8.16,0,14.8,6.64,14.8,14.8
		S139.95,32.98,131.79,32.98z"/>
	<path class="st0" d="M175.92,41.37c-0.87,0-1.55,0.25-2.04,0.74c-0.49,0.49-0.74,1.17-0.74,2.04l-0.06,18.09
		c-1.54-1.77-3.24-3.14-5.11-4.11c-1.87-0.96-4.15-1.45-6.83-1.45c-3.31,0-6.17,0.64-8.57,1.92c-2.4,1.28-4.23,3.07-5.47,5.38
		c-1.24,2.31-1.86,4.94-1.86,7.89c0,3.07,0.65,5.73,1.95,7.98c1.3,2.25,3.13,3.97,5.5,5.17c2.37,1.2,5.14,1.8,8.34,1.8
		c5.32,0,9.36-1.89,12.12-5.68v2.9c0,0.87,0.25,1.55,0.74,2.04c0.49,0.49,1.17,0.74,2.04,0.74c0.83,0,1.48-0.25,1.95-0.74
		c0.47-0.49,0.71-1.17,0.71-2.04v-39.9c0-0.87-0.24-1.55-0.71-2.04C177.4,41.62,176.75,41.37,175.92,41.37z M170.07,79.47
		c-2.05,1.87-4.87,2.81-8.45,2.81c-3.43,0-6.1-0.89-8.01-2.66c-1.91-1.77-2.87-4.35-2.87-7.74c0-3.23,0.96-5.81,2.9-7.74
		c1.93-1.93,4.61-2.9,8.04-2.9c3.31,0,6.05,0.95,8.22,2.84c2.17,1.89,3.25,4.45,3.25,7.68C173.14,75.03,172.12,77.6,170.07,79.47z"
		/>
	<path class="st0" d="M199.45,56.68c-2.37,0-4.63,0.32-6.8,0.95c-2.17,0.63-3.96,1.48-5.38,2.54c-0.67,0.55-1.01,1.16-1.01,1.83
		c0,0.59,0.22,1.1,0.65,1.54c0.51,0.43,1.03,0.65,1.54,0.65c0.55,0,1.2-0.22,1.95-0.65c2.56-1.62,5.59-2.42,9.1-2.42
		c2.64,0,4.64,0.56,6,1.69c1.36,1.12,2.04,2.75,2.04,4.88v2.96c-1.03-0.95-2.38-1.69-4.05-2.25c-1.68-0.55-3.58-0.83-5.7-0.83
		c-4.06,0-7.26,0.87-9.61,2.6c-2.35,1.73-3.52,4.08-3.52,7.04c0,2.96,1.11,5.3,3.34,7.03c2.23,1.73,5.25,2.6,9.07,2.6
		c4.73,0,8.28-1.4,10.64-4.2v1.66c0,0.79,0.24,1.41,0.71,1.86c0.47,0.45,1.14,0.68,2.01,0.68c0.87,0,1.53-0.23,1.98-0.68
		c0.45-0.45,0.68-1.11,0.68-1.98V67.79c0-3.51-1.2-6.24-3.61-8.19C207.09,57.66,203.74,56.68,199.45,56.68z M204.98,81.07
		c-1.75,1.05-4.07,1.57-6.95,1.57c-2.52,0-4.46-0.47-5.82-1.42c-1.36-0.95-2.04-2.28-2.04-4.02c0-1.77,0.69-3.13,2.07-4.08
		c1.38-0.94,3.35-1.42,5.91-1.42c2.96,0,5.27,0.46,6.95,1.39c1.68,0.93,2.51,2.22,2.51,3.87C207.61,78.65,206.73,80.02,204.98,81.07
		z"/>
	<path class="st0" d="M240.8,72.11c-1.56-0.87-3.71-1.73-6.47-2.6c-2.48-0.79-4.26-1.4-5.32-1.83c-1.06-0.43-1.81-0.89-2.25-1.36
		c-0.43-0.47-0.65-1.1-0.65-1.89c0-1.02,0.48-1.81,1.45-2.36c0.96-0.55,2.37-0.83,4.23-0.83c1.73,0,3.22,0.23,4.46,0.68
		c1.24,0.45,2.34,1.15,3.28,2.1c0.71,0.71,1.46,1.06,2.25,1.06c0.51,0,1.02-0.16,1.54-0.47c0.71-0.47,1.06-1.04,1.06-1.71
		c0-0.51-0.18-1.01-0.53-1.48c-1.06-1.46-2.69-2.61-4.88-3.46c-2.19-0.85-4.56-1.27-7.12-1.27c-3.47,0-6.22,0.7-8.25,2.1
		c-2.03,1.4-3.04,3.26-3.04,5.59c0,2.17,0.82,3.92,2.45,5.26c1.63,1.34,4.44,2.64,8.42,3.9c2.37,0.79,4.1,1.42,5.2,1.89
		c1.1,0.47,1.88,0.97,2.34,1.48c0.45,0.51,0.68,1.16,0.68,1.95c0,1.06-0.6,1.9-1.8,2.51c-1.2,0.61-2.75,0.92-4.64,0.92
		c-2.05,0-3.86-0.32-5.44-0.95c-1.58-0.63-3.02-1.63-4.32-3.02c-0.71-0.71-1.4-1.06-2.07-1.06c-0.39,0-0.77,0.1-1.12,0.29
		c-0.83,0.43-1.24,1.08-1.24,1.95c0,0.51,0.2,1.03,0.59,1.54c1.38,1.77,3.25,3.18,5.62,4.23c2.36,1.05,5.06,1.57,8.1,1.57
		c3.59,0,6.45-0.73,8.6-2.19c2.15-1.46,3.22-3.39,3.22-5.79c0-1.5-0.34-2.78-1.01-3.84C243.47,73.94,242.36,72.98,240.8,72.11z"/>
	<path class="st0" d="M268.56,56.68c-4.89,0-8.81,1.89-11.77,5.68V44.15c0-0.87-0.25-1.55-0.74-2.04c-0.49-0.49-1.17-0.74-2.04-0.74
		c-0.87,0-1.53,0.24-1.98,0.71c-0.45,0.47-0.68,1.16-0.68,2.07v39.9c0,0.87,0.23,1.55,0.68,2.04c0.45,0.49,1.11,0.74,1.98,0.74
		c0.87,0,1.55-0.25,2.04-0.74s0.74-1.17,0.74-2.04v-12c0-3.31,0.98-5.94,2.93-7.89c1.95-1.95,4.58-2.93,7.89-2.93
		c2.44,0,4.29,0.67,5.53,2.01c1.24,1.34,1.86,3.33,1.86,5.97v14.84c0,0.87,0.24,1.55,0.71,2.04c0.47,0.49,1.14,0.74,2.01,0.74
		c0.83,0,1.49-0.25,1.98-0.74c0.49-0.49,0.74-1.17,0.74-2.04V69.21c0-3.98-1.03-7.06-3.1-9.25
		C275.26,57.77,272.34,56.68,268.56,56.68z"/>
	<path class="st0" d="M305.15,56.68c-4.97,0-9.02,1.85-12.18,5.56l-0.06-18.09c0-0.87-0.25-1.55-0.74-2.04
		c-0.49-0.49-1.17-0.74-2.04-0.74s-1.54,0.25-2.01,0.74c-0.47,0.49-0.71,1.17-0.71,2.04v39.9c0,0.87,0.24,1.55,0.71,2.04
		s1.14,0.74,2.01,0.74s1.55-0.25,2.04-0.74s0.74-1.17,0.74-2.04v-2.9c1.54,1.93,3.29,3.36,5.26,4.29c1.97,0.93,4.26,1.39,6.86,1.39
		c5.01,0,8.89-1.32,11.65-3.96c2.76-2.64,4.14-6.35,4.14-11.11c0-4.65-1.4-8.33-4.2-11.02C313.82,58.03,310,56.68,305.15,56.68z
		 M312.54,79.59c-1.85,1.79-4.55,2.69-8.1,2.69c-3.59,0-6.4-0.94-8.45-2.81c-2.05-1.87-3.07-4.44-3.07-7.71
		c0-2.05,0.48-3.87,1.45-5.47c0.97-1.6,2.33-2.84,4.08-3.72c1.75-0.89,3.75-1.33,6-1.33c3.39,0,6.05,0.93,7.98,2.78
		c1.93,1.85,2.9,4.43,2.9,7.74C315.32,75.18,314.39,77.8,312.54,79.59z"/>
	<path class="st0" d="M350.76,58.69c-2.5-1.34-5.47-2.01-8.9-2.01c-3.43,0-6.4,0.67-8.93,2.01c-2.52,1.34-4.44,3.15-5.76,5.44
		c-1.32,2.29-1.98,4.83-1.98,7.63c0,2.8,0.66,5.34,1.98,7.63c1.32,2.29,3.24,4.1,5.76,5.44c2.52,1.34,5.5,2.01,8.93,2.01
		c3.43,0,6.39-0.67,8.9-2.01c2.5-1.34,4.41-3.15,5.73-5.44c1.32-2.29,1.98-4.83,1.98-7.63c0-2.8-0.66-5.34-1.98-7.63
		C355.17,61.84,353.26,60.03,350.76,58.69z M349.96,79.5c-2.01,1.85-4.71,2.78-8.1,2.78s-6.1-0.93-8.13-2.78
		c-2.03-1.85-3.04-4.43-3.04-7.74c0-3.31,1.01-5.89,3.04-7.74c2.03-1.85,4.74-2.78,8.13-2.78s6.09,0.93,8.1,2.78
		c2.01,1.85,3.02,4.43,3.02,7.74C352.98,75.07,351.97,77.65,349.96,79.5z"/>
	<path class="st0" d="M378.16,56.68c-2.37,0-4.63,0.32-6.8,0.95c-2.17,0.63-3.96,1.48-5.38,2.54c-0.67,0.55-1.01,1.16-1.01,1.83
		c0,0.59,0.22,1.1,0.65,1.54c0.51,0.43,1.03,0.65,1.54,0.65c0.55,0,1.2-0.22,1.95-0.65c2.56-1.62,5.59-2.42,9.1-2.42
		c2.64,0,4.64,0.56,6,1.69c1.36,1.12,2.04,2.75,2.04,4.88v2.96c-1.03-0.95-2.38-1.69-4.05-2.25c-1.68-0.55-3.58-0.83-5.7-0.83
		c-4.06,0-7.26,0.87-9.61,2.6c-2.35,1.73-3.52,4.08-3.52,7.04c0,2.96,1.11,5.3,3.34,7.03c2.23,1.73,5.25,2.6,9.07,2.6
		c4.73,0,8.28-1.4,10.64-4.2v1.66c0,0.79,0.24,1.41,0.71,1.86c0.47,0.45,1.14,0.68,2.01,0.68c0.87,0,1.53-0.23,1.98-0.68
		c0.45-0.45,0.68-1.11,0.68-1.98V67.79c0-3.51-1.2-6.24-3.61-8.19C385.8,57.66,382.45,56.68,378.16,56.68z M383.68,81.07
		c-1.75,1.05-4.07,1.57-6.95,1.57c-2.52,0-4.46-0.47-5.82-1.42c-1.36-0.95-2.04-2.28-2.04-4.02c0-1.77,0.69-3.13,2.07-4.08
		c1.38-0.94,3.35-1.42,5.91-1.42c2.96,0,5.27,0.46,6.95,1.39c1.68,0.93,2.51,2.22,2.51,3.87C386.32,78.65,385.44,80.02,383.68,81.07
		z"/>
	<path class="st0" d="M416.23,57.27h-1.42c-4.46,0-7.98,1.73-10.58,5.2v-3.02c0-0.87-0.24-1.55-0.71-2.04
		c-0.47-0.49-1.12-0.74-1.95-0.74c-1.77,0-2.66,0.93-2.66,2.78v24.59c0,0.87,0.23,1.55,0.68,2.04c0.45,0.49,1.11,0.74,1.98,0.74
		c0.87,0,1.55-0.25,2.04-0.74s0.74-1.17,0.74-2.04v-12c0-3.15,0.91-5.65,2.72-7.48c1.81-1.83,4.28-2.75,7.39-2.75h1.77
		c0.91,0,1.62-0.2,2.16-0.59c0.53-0.39,0.8-0.95,0.8-1.66c0-0.75-0.26-1.32-0.77-1.71C417.9,57.47,417.17,57.27,416.23,57.27z"/>
	<path class="st0" d="M452.59,42.11c-0.47-0.49-1.12-0.74-1.95-0.74c-0.87,0-1.55,0.25-2.04,0.74c-0.49,0.49-0.74,1.17-0.74,2.04
		l-0.06,18.09c-1.54-1.77-3.24-3.14-5.11-4.11c-1.87-0.96-4.15-1.45-6.83-1.45c-3.31,0-6.17,0.64-8.57,1.92
		c-2.4,1.28-4.23,3.07-5.47,5.38c-1.24,2.31-1.86,4.94-1.86,7.89c0,3.07,0.65,5.73,1.95,7.98c1.3,2.25,3.13,3.97,5.5,5.17
		c2.37,1.2,5.14,1.8,8.34,1.8c5.32,0,9.36-1.89,12.12-5.68v2.9c0,0.87,0.25,1.55,0.74,2.04c0.49,0.49,1.17,0.74,2.04,0.74
		c0.83,0,1.48-0.25,1.95-0.74s0.71-1.17,0.71-2.04v-39.9C453.3,43.28,453.06,42.6,452.59,42.11z M444.78,79.47
		c-2.05,1.87-4.87,2.81-8.45,2.81c-3.43,0-6.1-0.89-8.01-2.66c-1.91-1.77-2.87-4.35-2.87-7.74c0-3.23,0.96-5.81,2.9-7.74
		c1.93-1.93,4.61-2.9,8.04-2.9c3.31,0,6.05,0.95,8.22,2.84s3.25,4.45,3.25,7.68C447.86,75.03,446.83,77.6,444.78,79.47z"/>
	<path class="st0" d="M108.83,19.32c0.85-0.69,1.28-1.69,1.28-3c0-1.37-0.42-2.41-1.27-3.11c-0.85-0.7-2.11-1.05-3.78-1.05h-2.9
		c-0.73,0-1.31,0.2-1.72,0.59c-0.41,0.39-0.62,0.94-0.62,1.62v9.17c0,0.25,0.07,0.45,0.21,0.59c0.14,0.14,0.34,0.21,0.59,0.21
		c0.25,0,0.45-0.07,0.59-0.21c0.14-0.14,0.21-0.34,0.21-0.59v-3.19h3.71C106.75,20.35,107.98,20.01,108.83,19.32z M101.44,14.41
		c0-0.29,0.08-0.51,0.23-0.69c0.15-0.17,0.36-0.26,0.63-0.26h2.85c1.09,0,1.91,0.23,2.47,0.68c0.56,0.45,0.84,1.18,0.84,2.17
		c0,0.96-0.29,1.66-0.86,2.09c-0.57,0.43-1.39,0.64-2.46,0.64h-3.71V14.41z"/>
	<path class="st0" d="M122.56,16.08c0-2.61-1.61-3.92-4.83-3.92h-3.16c-0.77,0-1.36,0.21-1.77,0.62c-0.41,0.41-0.62,0.97-0.62,1.67
		v9.07c0,0.26,0.08,0.47,0.23,0.62c0.15,0.15,0.36,0.22,0.63,0.22c0.26,0,0.48-0.07,0.64-0.22c0.16-0.15,0.24-0.36,0.24-0.62v-3.59
		h2.13l3.88,4.04c0.22,0.25,0.46,0.38,0.74,0.38c0.18,0,0.36-0.07,0.53-0.21c0.18-0.15,0.28-0.34,0.28-0.57
		c0-0.21-0.06-0.37-0.19-0.5l-3.09-3.16c1.42,0,2.5-0.33,3.25-0.99C122.19,18.26,122.56,17.32,122.56,16.08z M120.09,17.98
		c-0.48,0.38-1.25,0.57-2.32,0.57h-3.85v-4.09c0-0.29,0.08-0.51,0.23-0.68c0.15-0.17,0.36-0.25,0.61-0.25h3.01
		c1.03,0,1.79,0.2,2.29,0.59c0.5,0.4,0.75,1.05,0.75,1.95C120.81,16.97,120.57,17.61,120.09,17.98z"/>
	<path class="st0" d="M133.32,12.76c-0.94-0.51-2.02-0.77-3.24-0.77c-1.21,0-2.29,0.26-3.24,0.77c-0.94,0.52-1.68,1.24-2.2,2.17
		c-0.52,0.93-0.78,2.01-0.78,3.24c0,1.23,0.26,2.3,0.78,3.24c0.52,0.93,1.25,1.66,2.2,2.17c0.94,0.51,2.02,0.77,3.24,0.77
		c1.21,0,2.29-0.26,3.24-0.77c0.94-0.52,1.68-1.24,2.2-2.17c0.52-0.93,0.78-2.01,0.78-3.24c0-1.22-0.26-2.3-0.78-3.24
		C135,14,134.27,13.28,133.32,12.76z M134.1,20.77c-0.39,0.73-0.93,1.29-1.62,1.67c-0.69,0.38-1.49,0.58-2.4,0.58
		c-0.9,0-1.7-0.19-2.4-0.58s-1.23-0.94-1.61-1.67c-0.38-0.73-0.58-1.6-0.58-2.59c0-1,0.19-1.86,0.56-2.58
		c0.37-0.73,0.9-1.28,1.58-1.67c0.68-0.39,1.46-0.58,2.34-0.58c0.92,0,1.73,0.19,2.44,0.57c0.71,0.38,1.27,0.93,1.67,1.66
		c0.4,0.73,0.6,1.6,0.6,2.62C134.69,19.17,134.49,20.03,134.1,20.77z"/>
	<path class="st0" d="M70.2,62.5l-1.19-5.95c-0.59-2.75-2.91-3.99-4.95-3.99c-2.04,0-4.36,1.24-4.95,4.02l-1.18,5.96l-8.41-25.57
		c-0.82-2.23-2.88-3.52-5.22-3.29c-2.35,0.22-4.13,1.87-4.52,4.2L31.17,88.7c-0.25,1.48,0.16,2.98,1.13,4.11
		c0.96,1.14,2.37,1.8,3.87,1.8h11.35c2.37,0,4.46-1.69,4.95-4.02l5.48-27.71l2.76,8.39c0.53,1.42,1.83,2.33,3.34,2.33
		c1.51,0,2.82-0.91,3.34-2.32l2.79-8.45l5.55,27.79c0.49,2.3,2.58,3.99,4.95,3.99h11.37c1.49,0,2.9-0.65,3.87-1.79
		c0.96-1.14,1.38-2.64,1.12-4.11l-8.62-50.89c-0.39-2.33-2.16-3.97-4.52-4.2c-2.37-0.24-4.4,1.06-5.22,3.28L70.2,62.5z M52.38,90.56
		c-0.49,2.3-2.53,3.95-4.87,3.95H36.16c-1.47,0-2.86-0.64-3.8-1.77c-0.95-1.12-1.35-2.6-1.11-4.04l8.61-50.82
		c0.47-2.79,2.69-3.97,4.45-4.13c1.66-0.15,4.14,0.6,5.12,3.22l8.46,25.72L52.38,90.56z M67.31,71.23
		c-0.63,1.69-2.09,2.28-3.26,2.28c-1.17-0.01-2.64-0.6-3.25-2.26l-2.81-8.55l1.21-6.11c0.62-2.92,3.01-3.95,4.86-3.95
		c1.86,0,4.24,1.03,4.87,3.92l1.22,6.1L67.31,71.23z M83.88,33.71c1.76,0.17,3.97,1.35,4.44,4.13l8.62,50.89
		c0.25,1.44-0.16,2.91-1.1,4.04c-0.95,1.12-2.33,1.77-3.8,1.77H80.66c-2.33,0-4.37-1.65-4.86-3.92l-5.57-27.93l8.51-25.73
		C79.74,34.28,82.14,33.54,83.88,33.71z"/>
	<path class="st0" d="M57.53,55.93L51.1,36.38c-1.09-2.96-3.82-4.67-6.96-4.39c-3.14,0.29-5.5,2.49-6.03,5.6l-8.61,50.82
		c-0.33,1.97,0.22,3.97,1.5,5.48c1.28,1.52,3.16,2.39,5.15,2.39h11.35c3.17,0,5.94-2.25,6.6-5.36l4.24-21.42l0.77,2.35
		c0.77,2.08,2.7,3.43,4.92,3.43c2.22,0,4.15-1.34,4.93-3.45l0.79-2.4l4.3,21.54c0.66,3.09,3.44,5.33,6.6,5.33h11.37
		c1.99,0,3.87-0.87,5.16-2.39c1.29-1.52,1.84-3.52,1.5-5.48l-8.62-50.89c-0.52-3.1-2.89-5.3-6.02-5.59
		c-3.14-0.29-5.87,1.42-6.97,4.4L70.6,55.93c-0.88-3.49-3.89-5.06-6.54-5.06C61.42,50.87,58.43,52.44,57.53,55.93z M83.89,33.62
		c2.35,0.22,4.13,1.87,4.52,4.2l8.62,50.89c0.25,1.47-0.16,2.97-1.12,4.11c-0.97,1.14-2.38,1.79-3.87,1.79H80.66
		c-2.37,0-4.45-1.68-4.95-3.99l-5.55-27.79l-2.79,8.45c-0.52,1.41-1.83,2.32-3.34,2.32c-1.5,0-2.81-0.91-3.34-2.33l-2.76-8.39
		l-5.48,27.71c-0.5,2.33-2.58,4.02-4.95,4.02H36.16c-1.49,0-2.9-0.65-3.87-1.8c-0.96-1.14-1.37-2.64-1.13-4.11l8.61-50.82
		c0.4-2.33,2.17-3.98,4.52-4.2c2.34-0.23,4.4,1.07,5.22,3.29l8.41,25.57l1.18-5.96c0.59-2.78,2.91-4.02,4.95-4.02
		c2.04,0,4.36,1.24,4.95,3.99l1.19,5.95l8.47-25.6C79.49,34.68,81.53,33.38,83.89,33.62z"/>
	<path class="st0" d="M64.06,52.64c-1.86,0-4.24,1.03-4.86,3.95l-1.21,6.11l2.81,8.55c0.61,1.65,2.08,2.25,3.25,2.26
		c1.17,0,2.63-0.59,3.26-2.28l2.84-8.57l-1.22-6.1C68.3,53.67,65.92,52.64,64.06,52.64z M64.05,71.82c-0.29,0-1.27-0.09-1.67-1.15
		l-2.66-8.08l1.12-5.66c0.53-2.48,2.77-2.61,3.22-2.61c0.44,0,2.68,0.13,3.21,2.58l1.13,5.65l-2.69,8.12
		C65.32,71.74,64.34,71.82,64.05,71.82z"/>
	<path class="st0" d="M75.8,90.61c0.49,2.27,2.53,3.92,4.86,3.92h11.37c1.47,0,2.86-0.65,3.8-1.77c0.95-1.13,1.35-2.6,1.1-4.04
		l-8.62-50.89c-0.47-2.78-2.69-3.96-4.44-4.13c-1.73-0.17-4.14,0.58-5.14,3.24l-8.51,25.73L75.8,90.61z M83.72,35.38
		c0.42,0.04,2.54,0.36,2.94,2.73L95.28,89c0.16,0.95-0.11,1.93-0.73,2.67c-0.62,0.74-1.54,1.17-2.51,1.17H80.66
		c-1.54,0-2.89-1.09-3.21-2.58l-5.48-27.48l8.36-25.27C80.98,35.76,82.55,35.27,83.72,35.38z"/>
	<path class="st0" d="M44.31,33.76c-1.76,0.16-3.98,1.34-4.45,4.13l-8.61,50.82c-0.25,1.45,0.16,2.92,1.11,4.04
		c0.94,1.12,2.33,1.77,3.8,1.77h11.36c2.33,0,4.38-1.66,4.87-3.95l5.51-27.85l-8.46-25.72C48.45,34.36,45.97,33.61,44.31,33.76z
		 M47.52,92.83H36.16c-0.97,0-1.89-0.42-2.51-1.17c-0.63-0.74-0.89-1.72-0.73-2.67l8.61-50.82c0.31-1.84,1.78-2.62,2.94-2.73
		c0.1-0.01,0.2-0.01,0.31-0.01c0.53,0,2.34,0.15,3.07,2.12l8.32,25.27l-5.42,27.41C50.41,91.74,49.06,92.83,47.52,92.83z"/>
</g>
</svg>
